<?xml version="1.0" encoding="UTF-8" standalone="no"?>
<!-- Created with Inkscape (http://www.inkscape.org/) -->

<svg
   xmlns:dc="http://purl.org/dc/elements/1.1/"
   xmlns:cc="http://creativecommons.org/ns#"
   xmlns:rdf="http://www.w3.org/1999/02/22-rdf-syntax-ns#"
   xmlns:svg="http://www.w3.org/2000/svg"
   xmlns="http://www.w3.org/2000/svg"
   xmlns:sodipodi="http://sodipodi.sourceforge.net/DTD/sodipodi-0.dtd"
   xmlns:inkscape="http://www.inkscape.org/namespaces/inkscape"
   width="210mm"
   height="297mm"
   viewBox="0 0 744.09448819 1052.3622047"
   id="svg2"
   version="1.1"
   inkscape:version="0.91 r13725"
   sodipodi:docname="black-white.svg">
  <defs
     id="defs4" />
  <sodipodi:namedview
     id="base"
     pagecolor="#ffffff"
     bordercolor="#666666"
     borderopacity="1.0"
     inkscape:pageopacity="0.0"
     inkscape:pageshadow="2"
     inkscape:zoom="1.8101934"
     inkscape:cx="245.61291"
     inkscape:cy="666.57709"
     inkscape:document-units="px"
     inkscape:current-layer="layer1"
     showgrid="true"
     inkscape:window-width="1600"
     inkscape:window-height="837"
     inkscape:window-x="-4"
     inkscape:window-y="-4"
     inkscape:window-maximized="1"
     showguides="false">
    <inkscape:grid
       type="xygrid"
       id="grid3351" />
  </sodipodi:namedview>
  <metadata
     id="metadata7">
    <rdf:RDF>
      <cc:Work
         rdf:about="">
        <dc:format>image/svg+xml</dc:format>
        <dc:type
           rdf:resource="http://purl.org/dc/dcmitype/StillImage" />
        <dc:title />
      </cc:Work>
    </rdf:RDF>
  </metadata>
  <g
     inkscape:label="Layer 1"
     inkscape:groupmode="layer"
     id="layer1">
    <a
       id="a4142"
       transform="matrix(0.95735163,0,0,1.0022353,21.330895,-5.2626575)"
       style="fill:#000000"
       inkscape:export-xdpi="411.42856"
       inkscape:export-ydpi="411.42856">
      <rect
         y="215.66005"
         x="171.89157"
         height="349.21939"
         width="365.59189"
         id="rect4158"
         style="fill:#000000;fill-opacity:1;stroke:#0073a3;stroke-width:0;stroke-miterlimit:4;stroke-dasharray:none;stroke-opacity:1" />
    </a>
    <g
       id="g4153"
       style="fill:#000000;fill-opacity:1"
       inkscape:export-xdpi="411.42856"
       inkscape:export-ydpi="411.42856">
      <rect
         y="297.67471"
         x="242.96875"
         height="59.375"
         width="65.625"
         id="rect4134"
         style="fill:#000000;stroke:#008000;fill-opacity:1" />
      <rect
         y="296.11221"
         x="392.96875"
         height="59.375"
         width="65.625"
         id="rect4134-6"
         style="fill:#000000;stroke:#008000;fill-opacity:1" />
      <path
         inkscape:connector-curvature="0"
         id="path4151"
         d="m 284.37499,394.54972 c 0.26042,1.04167 0.60473,2.06588 0.78125,3.125 0.15397,0.92378 0,2.15732 0,3.125 0,2.86458 0,5.72917 0,8.59375 0,1.04167 -0.20428,2.10356 0,3.125 0.16151,0.80752 0.64587,1.53144 0.78125,2.34375 0.12844,0.77062 0,1.5625 0,2.34375 0,1.30208 0,2.60417 0,3.90625 0,1.5625 0,3.125 0,4.6875 0,0.52083 0,1.04167 0,1.5625 0,0.52083 -0.23292,1.09665 0,1.5625 0.11647,0.23292 0.59711,-0.18414 0.78125,0 0.18415,0.18414 -0.11646,0.54833 0,0.78125 0.16471,0.3294 0.52084,0.52083 0.78125,0.78125 0.26042,0.52083 0.56499,1.02184 0.78125,1.5625 0.61169,1.52922 0.82593,3.21436 1.5625,4.6875 0.16471,0.3294 0.52084,0.52083 0.78125,0.78125 0.52084,0.52083 1.15393,0.94964 1.5625,1.5625 0.64602,0.96902 0.91649,2.15598 1.5625,3.125 0.40858,0.61286 1.18354,0.9309 1.5625,1.5625 0.4237,0.70615 0.41297,1.60718 0.78125,2.34375 0.16471,0.3294 0.61655,0.45184 0.78125,0.78125 0.24842,0.49683 -0.21568,3.2592 0,3.90625 0.11647,0.34938 0.66479,0.43186 0.78125,0.78125 0.16471,0.4941 -0.1647,1.06839 0,1.5625 0.11647,0.34938 0.66479,0.43186 0.78125,0.78125 0.32941,0.98821 -0.25264,2.11443 0,3.125 0.14123,0.56492 0.66705,0.9915 0.78125,1.5625 0.15322,0.76608 -0.18948,1.58582 0,2.34375 0.0893,0.35729 0.61655,0.45184 0.78125,0.78125 0.24196,0.48391 -0.23115,2.89384 0,3.125 0.18415,0.18414 0.66479,-0.23293 0.78125,0 0.46585,0.93169 -0.3294,2.13679 0,3.125 0.11647,0.34938 0.61655,0.45184 0.78125,0.78125 0.15488,0.30976 -0.15971,2.18403 0,2.34375 0.18415,0.18414 0.54833,-0.11646 0.78125,0 0.32941,0.1647 0.52084,0.52083 0.78125,0.78125 0.26042,0.26041 0.57697,0.47482 0.78125,0.78125 0.32301,0.48451 0.45825,1.07799 0.78125,1.5625 0.20429,0.30643 0.57697,0.47482 0.78125,0.78125 0.32301,0.48451 0.3695,1.15074 0.78125,1.5625 0.41176,0.41175 1.15075,0.36949 1.5625,0.78125 0.22575,0.22575 -0.23984,2.76524 0,3.125 0.40858,0.61286 1.2331,0.90369 1.5625,1.5625 0.46585,0.93169 -0.46584,2.1933 0,3.125 0.11646,0.23292 0.54833,-0.11646 0.78125,0 0.32941,0.1647 0.57697,0.47482 0.78125,0.78125 0.32301,0.48451 0.59711,1.01007 0.78125,1.5625 0.1647,0.4941 -0.36828,1.19421 0,1.5625 0.18415,0.18414 0.59711,-0.18414 0.78125,0 0.0501,0.0501 1.46549,2.97947 1.5625,3.125 0.20429,0.30643 0.52084,0.52083 0.78125,0.78125 0.26042,0.26041 0.45185,0.61655 0.78125,0.78125 0.23293,0.11646 0.59711,-0.18415 0.78125,0 0.18415,0.18414 -0.11646,0.54832 0,0.78125 1.62569,3.25137 -0.0539,-0.83519 1.5625,0.78125 0.18415,0.18414 -0.18414,0.5971 0,0.78125 0.36829,0.36828 1.09666,-0.23293 1.5625,0 1.5625,0.78125 0,1.5625 2.34375,2.34375 0.98821,0.3294 2.13679,-0.32941 3.125,0 0.69877,0.23292 0.87862,1.28894 1.5625,1.5625 0.72538,0.29015 1.57313,-0.12844 2.34375,0 5.92009,0.98668 0.31831,0.15915 3.125,1.5625 0.73657,0.36828 1.60718,0.41296 2.34375,0.78125 0.65881,0.3294 0.94964,1.15392 1.5625,1.5625 1.79633,1.19755 2.10992,0.36494 3.90625,1.5625 1.66667,1.11111 0.20834,1.875 3.125,3.125 0.95745,0.41033 2.10356,-0.20429 3.125,0 0.36114,0.0722 0.42396,0.69192 0.78125,0.78125 0.75793,0.18948 1.5625,0 2.34375,0 0.26042,0 0.54833,-0.11646 0.78125,0 0.32941,0.1647 0.47482,0.57696 0.78125,0.78125 0.48451,0.323 1.04167,0.52083 1.5625,0.78125 0.52084,0.26041 1.01007,0.5971 1.5625,0.78125 1.01863,0.33954 2.06589,0.60473 3.125,0.78125 2.60417,0.43402 0.65104,-0.65104 3.90625,0 0.571,0.1142 0.99758,0.64002 1.5625,0.78125 0.50528,0.12632 1.04167,0 1.5625,0 0.52084,0 1.04167,0 1.5625,0 1.5625,0 3.125,0 4.6875,0 1.5625,0 3.125,0 4.6875,0 0.52083,0 1.04167,0 1.5625,0 0.26042,0 0.5342,0.0824 0.78125,0 0.55243,-0.18415 1.04167,-0.52084 1.5625,-0.78125 0.52083,-0.26042 1.10779,-0.41749 1.5625,-0.78125 0.86275,-0.6902 1.48101,-1.65356 2.34375,-2.34375 0.45471,-0.36377 1.15075,-0.3695 1.5625,-0.78125 0.18414,-0.18415 -0.18414,-0.59711 0,-0.78125 0.41176,-0.41176 1.07799,-0.45825 1.5625,-0.78125 0.30643,-0.20429 0.46545,-0.59177 0.78125,-0.78125 1.61878,-0.97127 2.88197,-0.97804 3.90625,-2.34375 0.52083,-0.78125 1.04167,-1.5625 1.5625,-2.34375 0,-0.52084 -0.23292,-1.09666 0,-1.5625 0.32941,-0.65881 1.15393,-0.94964 1.5625,-1.5625 0.14445,-0.21668 -0.18414,-0.59711 0,-0.78125 0.18414,-0.18415 0.54833,0.11646 0.78125,0 0.69245,-0.34623 1.63257,-1.86963 2.34375,-2.34375 0.14553,-0.097 3.07494,-1.51244 3.125,-1.5625 0.41176,-0.41176 0.52083,-1.04167 0.78125,-1.5625 0.78125,-0.78125 1.49498,-1.63644 2.34375,-2.34375 0.54934,-0.45779 2.50383,-1.412 3.125,-2.34375 0.32301,-0.48451 0.45824,-1.07799 0.78125,-1.5625 0.95299,-1.42948 0.99605,-0.0779 1.5625,-2.34375 0.41257,-1.65028 -0.69419,-1.64956 0.78125,-3.125 0.18414,-0.18414 0.59711,0.18414 0.78125,0 0.18414,-0.18414 -0.0824,-0.5342 0,-0.78125 0.18414,-0.55243 0.48166,-1.06318 0.78125,-1.5625 0.48308,-0.80514 0.99913,-1.5926 1.5625,-2.34375 0.22097,-0.29463 0.61655,-0.45185 0.78125,-0.78125 0.8636,-1.7272 0.78125,-1.79334 0.78125,-3.125 0,-0.26042 0,-0.52084 0,-0.78125 0,-0.26042 -0.18414,-0.59711 0,-0.78125 0.18414,-0.18414 0.6368,0.21668 0.78125,0 0.4568,-0.6852 0.41297,-1.60718 0.78125,-2.34375 0.1647,-0.32941 0.69193,-0.42396 0.78125,-0.78125 0.18948,-0.75793 -0.24705,-1.60259 0,-2.34375 0.0823,-0.24705 0.59711,0.18414 0.78125,0 0.25328,-0.25328 -0.24793,-3.41039 0,-3.90625 0.1647,-0.32941 0.64447,-0.43931 0.78125,-0.78125 1.94025,-1.29359 0.28033,-3.18474 0.78125,-4.6875 0.11646,-0.34939 0.57696,-0.47482 0.78125,-0.78125 0.32301,-0.48451 0.52083,-1.04167 0.78125,-1.5625 0.26042,-0.52084 0.59711,-1.01007 0.78125,-1.5625 0.0823,-0.24705 0,-0.52084 0,-0.78125 0,-0.52084 0,-1.04167 0,-1.5625 0,-1.30208 0,-2.60417 0,-3.90625 0,-0.52083 -0.23292,-1.09665 0,-1.5625 0.11646,-0.23293 0.66479,0.23292 0.78125,0 0.16602,-0.33204 0,-3.25156 0,-3.90625 0,-0.51322 0.0919,-2.94129 0,-3.125 -0.11646,-0.23293 -0.59711,0.18414 -0.78125,0 -0.18414,-0.18414 0.11646,-0.54833 0,-0.78125 -0.1647,-0.32941 -0.61655,-0.45185 -0.78125,-0.78125 -0.11646,-0.23293 0.18414,-0.59711 0,-0.78125 -0.41175,-0.41176 -1.15074,-0.3695 -1.5625,-0.78125 -0.41175,-0.41176 -0.43186,-1.09665 -0.78125,-1.5625 -0.44194,-0.58926 -1.04167,-1.04167 -1.5625,-1.5625 -0.78125,-0.78125 -1.481,-1.65355 -2.34375,-2.34375 -0.79296,-0.63437 -1.84578,-0.56656 -2.34375,-1.5625 -0.36828,-0.73657 -0.32445,-1.65855 -0.78125,-2.34375 -0.61286,-0.9193 -1.5625,-1.5625 -2.34375,-2.34375 -0.78125,-0.78125 -1.481,-1.65355 -2.34375,-2.34375 -0.45471,-0.36377 -1.04167,-0.52083 -1.5625,-0.78125 -0.78125,-0.52083 -1.61056,-0.97595 -2.34375,-1.5625 -0.86275,-0.6902 -1.42445,-1.73089 -2.34375,-2.34375 -0.48451,-0.32301 -1.04167,-0.52083 -1.5625,-0.78125 -0.52083,-0.26042 -1.01007,-0.59711 -1.5625,-0.78125 -0.24705,-0.0823 -0.54833,0.11646 -0.78125,0 -0.3294,-0.1647 -0.45184,-0.61655 -0.78125,-0.78125 -0.23292,-0.11646 -0.5342,0.0824 -0.78125,0 -0.55243,-0.18414 -0.99758,-0.64002 -1.5625,-0.78125 -0.59411,-0.14853 -3.25204,0 -3.90625,0 -2.08333,0 -4.16667,0 -6.25,0 -1.5625,0 -3.125,0 -4.6875,0 -1.50389,0 -3.47387,-0.43238 -4.6875,0.78125 -1.75597,1.75597 -1.49654,2.56947 -2.34375,4.6875 -0.21626,0.54066 -0.66705,0.9915 -0.78125,1.5625 -0.15321,0.76608 0,1.5625 0,2.34375 0,1.5625 0,3.125 0,4.6875 0,0.45015 -0.14237,3.6215 0,3.90625 0.1647,0.3294 0.56028,0.48662 0.78125,0.78125 0.56337,0.75116 1.14259,1.50393 1.5625,2.34375 0.36829,0.73657 0.41297,1.60718 0.78125,2.34375 0.41991,0.83982 1.26558,1.45299 1.5625,2.34375 0.24705,0.74116 -0.29015,1.61838 0,2.34375 0.21878,0.54694 3.46133,3.3501 3.90625,3.90625 0.58656,0.73319 0.99913,1.59259 1.5625,2.34375 0.22097,0.29463 0.57696,0.47482 0.78125,0.78125 0.32301,0.48451 0.59711,1.01007 0.78125,1.5625 0.0823,0.24705 -0.18414,0.59711 0,0.78125 0.18414,0.18414 0.54833,-0.11646 0.78125,0 1.77824,1.77823 -0.1618,0.20648 1.5625,0.78125 1.10486,0.36828 2.04368,1.12997 3.125,1.5625 7.17768,2.87107 -0.24411,-0.68358 3.125,1.5625 0.48451,0.32301 1.15075,0.36949 1.5625,0.78125 0.41176,0.41175 0.43187,1.09665 0.78125,1.5625 0.44194,0.58925 1.04167,1.04166 1.5625,1.5625 0.26042,0.26041 0.66479,0.43186 0.78125,0.78125 0.24705,0.74116 0,1.5625 0,2.34375 0,1.82291 0,3.64583 0,5.46875 0,0.26041 0,0.52083 0,0.78125 0,0.26041 0.18414,0.59711 0,0.78125 -0.18414,0.18414 -0.5342,-0.0823 -0.78125,0 -0.55243,0.18414 -1.09665,0.43186 -1.5625,0.78125 -0.58925,0.44194 -1.04167,1.04166 -1.5625,1.5625 -0.78125,0.26041 -1.63759,0.35756 -2.34375,0.78125 -2.17455,1.30473 -1.07475,1.433 -2.34375,3.125 -0.44194,0.58925 -1.04167,1.04166 -1.5625,1.5625 -0.26042,0.26041 -0.47482,0.57696 -0.78125,0.78125 -0.48451,0.323 -1.07799,0.45824 -1.5625,0.78125 -1.5477,-0.078 -0.36949,1.15074 -0.78125,1.5625 -0.0314,0.0314 -2.83809,0 -3.125,0 -1.30208,0 -2.60417,0 -3.90625,0 -0.78125,0 -1.57767,0.15321 -2.34375,0 -0.571,-0.1142 -1.05691,-0.49235 -1.5625,-0.78125 -1.31841,-0.75338 -2.54808,-1.66467 -3.90625,-2.34375 -0.73657,-0.36829 -1.5625,-0.52084 -2.34375,-0.78125 -0.78125,-0.52084 -1.53861,-1.07942 -2.34375,-1.5625 -2.20215,-1.32129 -1.58895,-0.52965 -4.6875,-1.5625 -0.55243,-0.18414 -0.99757,-0.64002 -1.5625,-0.78125 -0.68846,-0.17212 -4.22531,0.23109 -4.6875,0 -3.25137,-1.62569 0.83519,0.0539 -0.78125,-1.5625 -0.36828,-0.36829 -1.09665,0.23292 -1.5625,0 -1.42259,-0.7113 -0.45796,-0.59264 -0.78125,-1.5625 -0.18414,-0.55243 -0.56498,-1.02184 -0.78125,-1.5625 -0.30584,-0.76461 -0.4754,-1.57914 -0.78125,-2.34375 -0.63063,-1.57659 -0.56892,-1.35017 -1.5625,-2.34375 -0.26041,-0.26042 -0.61655,-0.45185 -0.78125,-0.78125 -0.20655,-0.41311 0.0952,-2.74438 0,-3.125 -0.14123,-0.56492 -0.64002,-0.99758 -0.78125,-1.5625 -0.12632,-0.50528 0,-1.04167 0,-1.5625 0,-0.90432 0.17437,-3.20876 0,-3.90625 -0.14123,-0.56492 -0.52083,-1.04167 -0.78125,-1.5625 -0.76942,-1.53885 -1.70503,-3.0907 -2.34375,-4.6875 -0.61169,-1.52922 -0.9137,-3.17365 -1.5625,-4.6875 -0.91753,-2.14091 -2.38843,-4.04029 -3.125,-6.25 -0.1647,-0.49411 0.1647,-1.0684 0,-1.5625 -0.11646,-0.34939 -0.66479,-0.43187 -0.78125,-0.78125 -0.1647,-0.49411 0,-1.04167 0,-1.5625 0,-1.5625 0,-3.125 0,-4.6875 0,-0.78125 0,-1.5625 0,-2.34375 0,-0.26042 0.0823,-0.5342 0,-0.78125 -0.18414,-0.55243 -0.64002,-0.99758 -0.78125,-1.5625 -0.14853,-0.59412 0,-3.25204 0,-3.90625 0,-0.30884 0.16683,-3.57259 0,-3.90625 -0.1647,-0.3294 -0.61655,-0.45185 -0.78125,-0.78125 -0.11646,-0.23292 0.0823,-0.5342 0,-0.78125 -1.34839,-4.04517 -0.47968,1.8094 -1.5625,-4.6875 -0.0351,-0.21074 0.15362,-2.81776 0,-3.125 -0.3294,-0.65881 -1.23309,-0.90369 -1.5625,-1.5625 -0.11646,-0.23292 0,-0.52083 0,-0.78125 0,-0.78125 0,-1.5625 0,-2.34375 0,-2.60417 0,-5.20833 0,-7.8125 0,-0.45015 0.14238,-3.6215 0,-3.90625 -0.1647,-0.3294 -0.66479,-0.43186 -0.78125,-0.78125 -0.23437,-0.70313 0.23438,-1.64063 0,-2.34375 -0.18414,-0.55243 -0.52083,-1.04167 -0.78125,-1.5625 -0.26041,-0.52083 -0.36949,-1.15075 -0.78125,-1.5625 -0.41175,-0.41175 -1.15074,-0.3695 -1.5625,-0.78125 -0.41175,-0.41175 -0.36949,-1.15075 -0.78125,-1.5625 -0.66393,-0.66393 -1.5625,-1.04167 -2.34375,-1.5625 -0.78125,-1.04167 -1.49636,-2.13638 -2.34375,-3.125 -0.19482,-0.2273 -4.65386,-4.62023 -4.6875,-4.6875 -0.59384,-1.18768 -0.59346,-2.59173 -0.78125,-3.90625 -0.0737,-0.5156 0.23293,-1.09665 0,-1.5625 -0.3294,-0.65881 -1.18354,-0.9309 -1.5625,-1.5625 -0.56428,-0.94047 -1.30711,-4.7026 -1.5625,-5.46875 -0.18414,-0.55243 -0.52083,-1.04167 -0.78125,-1.5625 -0.26041,-0.52083 -0.43186,-1.09665 -0.78125,-1.5625 -0.44194,-0.58926 -1.12056,-0.97324 -1.5625,-1.5625 -3.66716,-4.88955 5.7111,4.14859 -3.90625,-5.46875 -0.53881,-0.53881 -3.49945,-1.4608 -3.90625,-1.5625 -0.25264,-0.0632 -0.52861,0.0632 -0.78125,0 -0.79892,-0.19973 -1.52851,-0.66479 -2.34375,-0.78125 -1.11657,-0.15951 -4.90469,0 -6.25,0 -1.87724,0 -8.63244,-0.3616 -10.15625,0.78125 -1.33398,1.00049 -2.16876,2.5402 -3.125,3.90625 -0.79102,1.13004 -2.93542,4.35427 -3.125,6.25 -0.24058,2.40581 0,6.65719 0,9.375 0,2.34375 0,4.6875 0,7.03125 0,0.78125 -0.12843,1.57313 0,2.34375 0.17652,1.05912 0.48628,2.09259 0.78125,3.125 0.22624,0.79182 0.35756,1.6376 0.78125,2.34375 0.37897,0.6316 1.12056,0.97324 1.5625,1.5625 0.34939,0.46585 0.52084,1.04167 0.78125,1.5625 0.26042,0.52083 0.59711,1.01007 0.78125,1.5625 0.33955,1.01863 0.57068,2.07213 0.78125,3.125 0.16495,0.82472 -0.23768,3.4903 0,3.90625 0.9317,1.63047 2.08334,3.125 3.125,4.6875 z"
         style="fill:#000000;fill-rule:evenodd;stroke:#000000;stroke-width:1px;stroke-linecap:butt;stroke-linejoin:miter;stroke-opacity:1;fill-opacity:1" />
    </g>
    <path
       style="fill:#ffffff;fill-opacity:1;stroke:#ffffff;stroke-width:0;stroke-miterlimit:4;stroke-dasharray:none;stroke-opacity:1"
       d="m 407.52615,248.2102 c -40.01177,0.94677 -79.46833,9.87732 -117.37874,22.31378 -23.06422,7.60895 -46.66481,13.70826 -69.4279,22.13739 2.58522,22.30217 10.22967,43.67987 15.76757,65.36524 8.22001,30.8348 17.15201,61.70909 30.60784,90.7313 15.8446,32.18408 38.08527,66.17878 74.58468,76.53471 33.39507,6.66067 69.32213,-15.30593 80.41076,-47.26125 9.79266,-21.60781 12.90964,-50.66917 -3.22242,-67.95203 -13.10851,-18.12398 18.00099,-9.91437 27.43631,-15.195 22.60596,-7.37262 40.73503,-26.1198 48.30339,-48.58755 11.28027,-28.62977 2.93537,-66.45251 -25.18369,-82.13114 -17.59951,-11.51765 -38.5565,-16.82956 -59.512,-15.94872 l -2.3858,-0.007 0,0 z m -127.67774,61.51172 c 26.30264,-0.0428 13.29941,42.86611 -8.58655,28.09212 -12.54304,-7.76354 -6.16469,-28.66675 8.58655,-28.09212 z m 152.5,1.42969 c 26.3024,-0.0428 13.29863,42.86393 -8.58655,28.09017 -12.54317,-7.76335 -6.16382,-28.66478 8.58655,-28.09017 z M 303.1528,356.20183 c 9.15467,10.77368 13.06917,21.14448 15.93191,39.23529 1.71346,23.53419 -1.07743,50.01901 12.12269,70.76763 9.29801,16.06698 30.08086,22.12197 47.52148,18.93863 12.94438,-3.22878 21.72,-16.2788 22.82399,-29.02998 0.006,-15.41946 -20.30002,-15.81772 -24.82278,-28.37469 -3.13467,-19.6128 20.47151,-14.67933 28.37534,-3.01633 11.94219,15.41942 7.54867,37.57945 -2.92874,52.08883 -9.30113,13.83753 -23.97708,24.44843 -41.01847,25.30093 -18.41637,2.23163 -37.00306,-7.57155 -49.15828,-20.65488 -15.43449,-20.43095 -7.17085,-47.19987 -3.44549,-70.02629 3.75538,-18.19725 -0.82539,-36.1822 -8.1126,-52.90183 -0.18991,-0.86808 1.77971,-2.41009 2.71095,-2.32731 z"
       id="rect3351"
       inkscape:connector-curvature="0"
       sodipodi:nodetypes="cccccccccccccccccccccccccccccccccc"
       inkscape:export-xdpi="411.42856"
       inkscape:export-ydpi="411.42856" />
    <ellipse
       style="fill:#000000;fill-opacity:1;stroke:#ffffff;stroke-width:0;stroke-opacity:1;opacity:1;stroke-miterlimit:4;stroke-dasharray:none"
       id="path4160-3"
       cx="278.97571"
       cy="321.50107"
       r="27.195978"
       inkscape:export-xdpi="411.42856"
       inkscape:export-ydpi="411.42856" />
    <ellipse
       style="fill:#000000;fill-opacity:1;stroke:#ffffff;stroke-width:0;stroke-opacity:1;stroke-miterlimit:4;stroke-dasharray:none"
       id="path4160-3-4"
       cx="430.89319"
       cy="324.26318"
       r="27.195978"
       inkscape:export-xdpi="411.42856"
       inkscape:export-ydpi="411.42856" />
    <ellipse
       style="fill:#000000;fill-opacity:1"
       id="path3357"
       cx="301.9429"
       cy="357.53976"
       rx="1.7772272"
       ry="1.8334173"
       inkscape:export-xdpi="411.42856"
       inkscape:export-ydpi="411.42856" />
    <circle
       style="fill:#000000;fill-opacity:1"
       id="path3344"
       cx="276.48978"
       cy="323.98697"
       r="26.24029" />
    <circle
       style="fill:#000000;fill-opacity:1"
       id="path3344-8"
       cx="430.89319"
       cy="324.26321"
       r="20.716019" />
    <circle
       style="fill:#000000;fill-opacity:1"
       id="path3344-9"
       cx="430.70142"
       cy="323.9588"
       r="26.24029" />
  </g>
</svg>
